<svg xmlns="http://www.w3.org/2000/svg" width="24" height="24" viewBox="0 0 24 24"><path d="M24,24H0V0H24Z" style="fill:none"/><path d="M5.707,4.293A1,1,0,0,0,4.293,5.707l14,14a1,1,0,0,0,1.414-1.414Z"/><path d="M12,5.5a11.193,11.193,0,0,0-3.2.466l2.182,2.183A3.926,3.926,0,0,1,12,8a4,4,0,0,1,4,4,3.926,3.926,0,0,1-.149,1.023l3.063,3.063A10.336,10.336,0,0,0,22,12,10.754,10.754,0,0,0,12,5.5Z"/><path d="M12,16a4,4,0,0,1-4-4,3.926,3.926,0,0,1,.149-1.023L5.086,7.914A10.336,10.336,0,0,0,2,12a10.754,10.754,0,0,0,10,6.5,11.193,11.193,0,0,0,3.205-.466l-2.182-2.183A3.926,3.926,0,0,1,12,16Z"/></svg>