<svg xmlns="http://www.w3.org/2000/svg" width="24" height="24" viewBox="0 0 24 24">
  <path d="M0,0H24V24H0Z" style="fill: none"/>
  <g>
    <path d="M5,18a1,1,0,0,0,1,1h6a1,1,0,0,0,0-2H7V7h5a1,1,0,0,0,0-2H6A1,1,0,0,0,5,6Z"/>
    <path d="M20.769,11.36l-5-6a1,1,0,0,0-1.538,1.28L17.862,11,10,10.983h0a1,1,0,0,0,0,2L17.868,13,14.231,17.36a1,1,0,0,0,1.538,1.28l5-6a.951.951,0,0,0,.088-.155.814.814,0,0,0,.069-.122.99.99,0,0,0,.072-.35L21,12h0a.992.992,0,0,0-.073-.363.872.872,0,0,0-.068-.119A.927.927,0,0,0,20.769,11.36Z"/>
  </g>
</svg>
