<svg xmlns="http://www.w3.org/2000/svg" width="24" height="24" viewBox="0 0 24 24">
  <path d="M0,0H24V24H0Z" style="fill: none"/>
  <path d="M5.453,19.837A1,1,0,0,0,6,20a.98.98,0,0,0,.4-.084L10,18.341l3.6,1.575c.014.006.029,0,.044.009a.882.882,0,0,0,.712,0c.015,0,.03,0,.044-.009l4-1.75a1,1,0,0,0,.6-.916V5a1,1,0,0,0-1.4-.916L14,5.659,10.4,4.084c-.012-.006-.026-.007-.039-.012a.973.973,0,0,0-.12-.035.983.983,0,0,0-.12-.025.924.924,0,0,0-.118,0,1.037,1.037,0,0,0-.125,0,1.155,1.155,0,0,0-.117.024c-.041.011-.082.021-.122.036-.013,0-.027.006-.039.012l-4,1.75A1,1,0,0,0,5,6.75V19A1,1,0,0,0,5.453,19.837ZM15,7.4l2-.875V16.6l-2,.875Zm-4-.875L13,7.4V17.471L11,16.6ZM7,7.4l2-.875V16.6l-2,.875Z"/>
</svg>
