<svg xmlns="http://www.w3.org/2000/svg" width="24" height="24" viewBox="0 0 24 24">
  <path d="M22,24H0V0H22Z" style="fill:none"/>
  <path d="M19.71,11.29l-3-3a1,1,0,0,0-1.42,1.42L16.59,11H15a3.33,3.33,0,0,1-2.74-1.4A7.5,7.5,0,0,0,6,7,1,1,0,0,0,6,9a5.59,5.59,0,0,1,4.83,2,9.47,9.47,0,0,0,1.08,1,9.47,9.47,0,0,0-1.08,1A5.59,5.59,0,0,1,6,15a1,1,0,0,0,0,2,7.5,7.5,0,0,0,6.26-2.6A3.33,3.33,0,0,1,15,13h1.59l-1.3,1.29a1,1,0,0,0,0,1.42,1,1,0,0,0,1.42,0l3-3a1,1,0,0,0,.21-.33,1,1,0,0,0,0-.76A1,1,0,0,0,19.71,11.29Z"/>
</svg>