<svg xmlns="http://www.w3.org/2000/svg" width="24" height="24" viewBox="0 0 24 24">
  <path d="M0,0H24V24H0Z" style="fill: none"/>
  <g>
    <path d="M19.053,12.5a1,1,0,0,0-1.188.768A6.027,6.027,0,0,1,12,18a5.967,5.967,0,0,1-4.965-2.654H9.654a1,1,0,0,0,0-2h-5a1,1,0,0,0-1,1v5a1,1,0,0,0,2,0V16.852A7.989,7.989,0,0,0,19.82,13.69,1,1,0,0,0,19.053,12.5Z"/>
    <path d="M19.346,3.654a1,1,0,0,0-1,1V7.17A7.977,7.977,0,0,0,4.183,10.291a1,1,0,0,0,1.955.426A5.988,5.988,0,0,1,16.964,8.654H14.346a1,1,0,0,0,0,2h5a1,1,0,0,0,1-1v-5A1,1,0,0,0,19.346,3.654Z"/>
  </g>
</svg>
