<svg xmlns="http://www.w3.org/2000/svg" width="24" height="24" viewBox="0 0 24 24">
  <path d="M0,0H24V24H0Z" style="fill: none"/>
  <path d="M5,16.013a6.955,6.955,0,0,0,.945,3.49,1,1,0,0,0,.866.5.984.984,0,0,0,.5-.136A1,1,0,0,0,7.674,18.5a4.93,4.93,0,0,1,1.573-6.624,4.355,4.355,0,0,0,5.505,0A4.929,4.929,0,0,1,16.326,18.5a1,1,0,0,0,.362,1.367.984.984,0,0,0,.5.136,1,1,0,0,0,.866-.5,6.934,6.934,0,0,0-2.048-9.2,4.362,4.362,0,0,0,.434-1.876,4.441,4.441,0,0,0-8.882,0A4.362,4.362,0,0,0,7.993,10.3,6.914,6.914,0,0,0,5,16.013ZM12,6A2.427,2.427,0,1,1,9.559,8.427,2.436,2.436,0,0,1,12,6Z"/>
</svg>
