<svg xmlns="http://www.w3.org/2000/svg" width="24" height="24" viewBox="0 0 24 24">
  <g>
    <g style="opacity: 0.4">
      <line y1="1" x2="24" y2="1" style="fill: none;stroke: #ff00b7;stroke-miterlimit: 10;stroke-width: 0.050000000745058px"/>
      <line y1="2" x2="24" y2="2" style="fill: none;stroke: #ff00b7;stroke-miterlimit: 10;stroke-width: 0.050000000745058px"/>
      <line y1="3" x2="24" y2="3" style="fill: none;stroke: #ff00b7;stroke-miterlimit: 10;stroke-width: 0.050000000745058px"/>
      <line y1="4" x2="24" y2="4" style="fill: none;stroke: #ff00b7;stroke-miterlimit: 10;stroke-width: 0.050000000745058px"/>
      <line y1="5" x2="24" y2="5" style="fill: none;stroke: #ff00b7;stroke-miterlimit: 10;stroke-width: 0.050000000745058px"/>
      <line y1="6" x2="24" y2="6" style="fill: none;stroke: #ff00b7;stroke-miterlimit: 10;stroke-width: 0.050000000745058px"/>
      <line y1="7" x2="24" y2="7" style="fill: none;stroke: #ff00b7;stroke-miterlimit: 10;stroke-width: 0.050000000745058px"/>
      <line y1="8" x2="24" y2="8" style="fill: none;stroke: #ff00b7;stroke-miterlimit: 10;stroke-width: 0.050000000745058px"/>
      <line y1="9" x2="24" y2="9" style="fill: none;stroke: #ff00b7;stroke-miterlimit: 10;stroke-width: 0.050000000745058px"/>
      <line y1="10" x2="24" y2="10" style="fill: none;stroke: #ff00b7;stroke-miterlimit: 10;stroke-width: 0.050000000745058px"/>
      <line y1="11" x2="24" y2="11" style="fill: none;stroke: #ff00b7;stroke-miterlimit: 10;stroke-width: 0.050000000745058px"/>
      <line y1="12" x2="24" y2="12" style="fill: none;stroke: #ff00b7;stroke-miterlimit: 10;stroke-width: 0.050000000745058px"/>
      <line y1="13" x2="24" y2="13" style="fill: none;stroke: #ff00b7;stroke-miterlimit: 10;stroke-width: 0.050000000745058px"/>
      <line y1="14" x2="24" y2="14" style="fill: none;stroke: #ff00b7;stroke-miterlimit: 10;stroke-width: 0.050000000745058px"/>
      <line y1="15" x2="24" y2="15" style="fill: none;stroke: #ff00b7;stroke-miterlimit: 10;stroke-width: 0.050000000745058px"/>
      <line y1="16" x2="24" y2="16" style="fill: none;stroke: #ff00b7;stroke-miterlimit: 10;stroke-width: 0.050000000745058px"/>
      <line y1="17" x2="24" y2="17" style="fill: none;stroke: #ff00b7;stroke-miterlimit: 10;stroke-width: 0.050000000745058px"/>
      <line y1="18" x2="24" y2="18" style="fill: none;stroke: #ff00b7;stroke-miterlimit: 10;stroke-width: 0.050000000745058px"/>
      <line y1="19" x2="24" y2="19" style="fill: none;stroke: #ff00b7;stroke-miterlimit: 10;stroke-width: 0.050000000745058px"/>
      <line y1="20" x2="24" y2="20" style="fill: none;stroke: #ff00b7;stroke-miterlimit: 10;stroke-width: 0.050000000745058px"/>
      <line y1="21" x2="24" y2="21" style="fill: none;stroke: #ff00b7;stroke-miterlimit: 10;stroke-width: 0.050000000745058px"/>
      <line y1="22" x2="24" y2="22" style="fill: none;stroke: #ff00b7;stroke-miterlimit: 10;stroke-width: 0.050000000745058px"/>
      <line y1="23" x2="24" y2="23" style="fill: none;stroke: #ff00b7;stroke-miterlimit: 10;stroke-width: 0.050000000745058px"/>
      <line x1="1" y1="24" x2="1" style="fill: none;stroke: #ff00b7;stroke-miterlimit: 10;stroke-width: 0.050000000745058px"/>
      <line x1="2" y1="24" x2="2" style="fill: none;stroke: #ff00b7;stroke-miterlimit: 10;stroke-width: 0.050000000745058px"/>
      <line x1="3" y1="24" x2="3" style="fill: none;stroke: #ff00b7;stroke-miterlimit: 10;stroke-width: 0.050000000745058px"/>
      <line x1="4" y1="24" x2="4" style="fill: none;stroke: #ff00b7;stroke-miterlimit: 10;stroke-width: 0.050000000745058px"/>
      <line x1="5" y1="24" x2="5" style="fill: none;stroke: #ff00b7;stroke-miterlimit: 10;stroke-width: 0.050000000745058px"/>
      <line x1="6" y1="24" x2="6" style="fill: none;stroke: #ff00b7;stroke-miterlimit: 10;stroke-width: 0.050000000745058px"/>
      <line x1="7" y1="24" x2="7" style="fill: none;stroke: #ff00b7;stroke-miterlimit: 10;stroke-width: 0.050000000745058px"/>
      <line x1="8" y1="24" x2="8" style="fill: none;stroke: #ff00b7;stroke-miterlimit: 10;stroke-width: 0.050000000745058px"/>
      <line x1="9" y1="24" x2="9" style="fill: none;stroke: #ff00b7;stroke-miterlimit: 10;stroke-width: 0.050000000745058px"/>
      <line x1="10" y1="24" x2="10" style="fill: none;stroke: #ff00b7;stroke-miterlimit: 10;stroke-width: 0.050000000745058px"/>
      <line x1="11" y1="24" x2="11" style="fill: none;stroke: #ff00b7;stroke-miterlimit: 10;stroke-width: 0.050000000745058px"/>
      <line x1="12" y1="24" x2="12" style="fill: none;stroke: #ff00b7;stroke-miterlimit: 10;stroke-width: 0.050000000745058px"/>
      <line x1="13" y1="24" x2="13" style="fill: none;stroke: #ff00b7;stroke-miterlimit: 10;stroke-width: 0.050000000745058px"/>
      <line x1="14" y1="24" x2="14" style="fill: none;stroke: #ff00b7;stroke-miterlimit: 10;stroke-width: 0.050000000745058px"/>
      <line x1="15" y1="24" x2="15" style="fill: none;stroke: #ff00b7;stroke-miterlimit: 10;stroke-width: 0.050000000745058px"/>
      <line x1="16" y1="24" x2="16" style="fill: none;stroke: #ff00b7;stroke-miterlimit: 10;stroke-width: 0.050000000745058px"/>
      <line x1="17" y1="24" x2="17" style="fill: none;stroke: #ff00b7;stroke-miterlimit: 10;stroke-width: 0.050000000745058px"/>
      <line x1="18" y1="24" x2="18" style="fill: none;stroke: #ff00b7;stroke-miterlimit: 10;stroke-width: 0.050000000745058px"/>
      <line x1="19" y1="24" x2="19" style="fill: none;stroke: #ff00b7;stroke-miterlimit: 10;stroke-width: 0.050000000745058px"/>
      <line x1="20" y1="24" x2="20" style="fill: none;stroke: #ff00b7;stroke-miterlimit: 10;stroke-width: 0.050000000745058px"/>
      <line x1="21" y1="24" x2="21" style="fill: none;stroke: #ff00b7;stroke-miterlimit: 10;stroke-width: 0.050000000745058px"/>
      <line x1="22" y1="24" x2="22" style="fill: none;stroke: #ff00b7;stroke-miterlimit: 10;stroke-width: 0.050000000745058px"/>
      <line x1="23" y1="24" x2="23" style="fill: none;stroke: #ff00b7;stroke-miterlimit: 10;stroke-width: 0.050000000745058px"/>
    </g>
    <g style="opacity: 0.30000000000000004">
      <path d="M0,0V24H24V0ZM22,22H2V2H22Z" style="fill: #ff00b7"/>
    </g>
  </g>
  <path d="M24,24H0V0H24Z" style="fill: none"/>
  <g>
    <circle cx="12" cy="12" r="4" style="fill: none;stroke: blue;stroke-miterlimit: 10;stroke-width: 0.050000000745058px"/>
    <circle cx="12" cy="12" r="7" style="fill: none;stroke: blue;stroke-miterlimit: 10;stroke-width: 0.050000000745058px"/>
    <circle cx="12" cy="12" r="10" style="fill: none;stroke: blue;stroke-miterlimit: 10;stroke-width: 0.050000000745058px"/>
    <rect x="8" y="8" width="8" height="8" style="fill: none;stroke: blue;stroke-miterlimit: 10;stroke-width: 0.050000000745058px"/>
    <rect x="5" y="5" width="14" height="14" style="fill: none;stroke: blue;stroke-miterlimit: 10;stroke-width: 0.050000000745058px"/>
    <rect x="2" y="2" width="20" height="20" style="fill: none;stroke: blue;stroke-miterlimit: 10;stroke-width: 0.050000000745058px"/>
    <line x1="2" y1="2" x2="22" y2="22" style="fill: none;stroke: #ff009e;stroke-miterlimit: 10;stroke-width: 0.050000000745058px"/>
    <line x1="2" y1="22" x2="22" y2="2" style="fill: none;stroke: #ff009e;stroke-miterlimit: 10;stroke-width: 0.050000000745058px"/>
    <rect x="4" y="4" width="16" height="16" style="fill: none;stroke: blue;stroke-miterlimit: 10;stroke-width: 0.050000000745058px"/>
    <circle cx="12" cy="12" r="8" style="fill: none;stroke: blue;stroke-miterlimit: 10;stroke-width: 0.050000000745058px"/>
  </g>
</svg>
