<?xml version="1.0" encoding="UTF-8" standalone="no"?>
<!DOCTYPE svg PUBLIC "-//W3C//DTD SVG 1.1//EN" "http://www.w3.org/Graphics/SVG/1.1/DTD/svg11.dtd">
<svg width="100%" height="100%" viewBox="0 0 24 24" version="1.1" xmlns="http://www.w3.org/2000/svg" xmlns:xlink="http://www.w3.org/1999/xlink" xml:space="preserve" xmlns:serif="http://www.serif.com/" style="fill-rule:evenodd;clip-rule:evenodd;stroke-linejoin:round;stroke-miterlimit:2;">
    <path d="M12,5C11.451,5 11,5.451 11,6L11,11L6,11C5.451,11 5,11.451 5,12C5,12.549 5.451,13 6,13L11,13L11,18C11,18.549 11.451,19 12,19C12.549,19 13,18.549 13,18L13,13L18,13C18.549,13 19,12.549 19,12C19,11.451 18.549,11 18,11L13,11L13,6C13,5.451 12.549,5 12,5Z" style="fill-rule:nonzero;"/>
</svg>
