<?xml version="1.0" encoding="UTF-8" standalone="no"?>
<!DOCTYPE svg PUBLIC "-//W3C//DTD SVG 1.1//EN" "http://www.w3.org/Graphics/SVG/1.1/DTD/svg11.dtd">
<svg width="100%" height="100%" viewBox="0 0 24 24" version="1.1" xmlns="http://www.w3.org/2000/svg" xmlns:xlink="http://www.w3.org/1999/xlink" xml:space="preserve" xmlns:serif="http://www.serif.com/" style="fill-rule:evenodd;clip-rule:evenodd;stroke-linejoin:round;stroke-miterlimit:2;">
    <path d="M8.91,12L15.21,5.71C15.398,5.522 15.504,5.266 15.504,5C15.504,4.449 15.051,3.996 14.5,3.996C14.234,3.996 13.978,4.102 13.79,4.29L6.79,11.29C6.601,11.478 6.494,11.733 6.494,12C6.494,12.267 6.601,12.522 6.79,12.71L13.79,19.71C13.978,19.899 14.233,20.006 14.5,20.006C14.767,20.006 15.022,19.899 15.21,19.71C15.399,19.522 15.506,19.267 15.506,19C15.506,18.733 15.399,18.478 15.21,18.29L8.91,12Z" style="fill-rule:nonzero;"/>
</svg>
