<?xml version="1.0" encoding="UTF-8" standalone="no"?>
<!DOCTYPE svg PUBLIC "-//W3C//DTD SVG 1.1//EN" "http://www.w3.org/Graphics/SVG/1.1/DTD/svg11.dtd">
<svg width="100%" height="100%" viewBox="0 0 24 24" version="1.1" xmlns="http://www.w3.org/2000/svg" xmlns:xlink="http://www.w3.org/1999/xlink" xml:space="preserve" xmlns:serif="http://www.serif.com/" style="fill-rule:evenodd;clip-rule:evenodd;stroke-linejoin:round;stroke-miterlimit:2;">
    <path d="M5,13L16.586,13L11.293,18.293C11.098,18.481 10.988,18.741 10.988,19.012C10.988,19.561 11.439,20.012 11.988,20.012C12.259,20.012 12.519,19.902 12.707,19.707L19.707,12.707C19.895,12.519 20.001,12.265 20.001,11.999C20.001,11.733 19.895,11.479 19.707,11.291L12.707,4.291C12.521,4.111 12.271,4.01 12.012,4.01C11.464,4.01 11.012,4.462 11.012,5.01C11.012,5.269 11.113,5.519 11.293,5.705L16.586,11L5,11C4.451,11 4,11.451 4,12C4,12.549 4.451,13 5,13Z" style="fill-rule:nonzero;"/>
</svg>
