<?xml version="1.0" encoding="UTF-8" standalone="no"?>
<!DOCTYPE svg PUBLIC "-//W3C//DTD SVG 1.1//EN" "http://www.w3.org/Graphics/SVG/1.1/DTD/svg11.dtd">
<svg width="100%" height="100%" viewBox="0 0 24 24" version="1.1" xmlns="http://www.w3.org/2000/svg" xmlns:xlink="http://www.w3.org/1999/xlink" xml:space="preserve" xmlns:serif="http://www.serif.com/" style="fill-rule:evenodd;clip-rule:evenodd;stroke-linejoin:round;stroke-miterlimit:2;">
    <path d="M4.077,12.382C4.127,12.504 4.201,12.615 4.294,12.708L11.294,19.708C11.48,19.888 11.73,19.989 11.989,19.989C12.537,19.989 12.989,19.537 12.989,18.989C12.989,18.73 12.888,18.48 12.708,18.294L7.414,13L19,13C19.549,13 20,12.549 20,12C20,11.451 19.549,11 19,11L7.414,11L12.707,5.707C12.902,5.519 13.012,5.259 13.012,4.988C13.012,4.439 12.561,3.988 12.012,3.988C11.741,3.988 11.481,4.098 11.293,4.293L4.293,11.293C4.007,11.578 3.921,12.01 4.076,12.383L4.077,12.382Z" style="fill-rule:nonzero;"/>
</svg>
