<?xml version="1.0" encoding="UTF-8" standalone="no"?>
<!DOCTYPE svg PUBLIC "-//W3C//DTD SVG 1.1//EN" "http://www.w3.org/Graphics/SVG/1.1/DTD/svg11.dtd">
<svg width="100%" height="100%" viewBox="0 0 24 24" version="1.1" xmlns="http://www.w3.org/2000/svg" xmlns:xlink="http://www.w3.org/1999/xlink" xml:space="preserve" xmlns:serif="http://www.serif.com/" style="fill-rule:evenodd;clip-rule:evenodd;stroke-linejoin:round;stroke-miterlimit:2;">
    <path d="M5,15C5,15.549 5.451,16 6,16L18,16C18.549,16 19,15.549 19,15L19,11.8C18.986,8.064 15.909,4.998 12.173,4.998C12.115,4.998 12.058,4.999 12,5C8.162,5.004 5.004,8.162 5,12L5,15ZM7,12C7.003,9.258 9.258,7.003 12,7C12.051,6.998 12.101,6.998 12.152,6.998C14.795,6.998 16.975,9.158 17,11.8L17,14L7,14L7,12ZM12,19C13.097,19 14,18.097 14,17L10,17C10,18.097 10.903,19 12,19Z" style="fill-rule:nonzero;"/>
</svg>
