<?xml version="1.0" encoding="UTF-8" standalone="no"?>
<!DOCTYPE svg PUBLIC "-//W3C//DTD SVG 1.1//EN" "http://www.w3.org/Graphics/SVG/1.1/DTD/svg11.dtd">
<svg width="100%" height="100%" viewBox="0 0 24 24" version="1.1" xmlns="http://www.w3.org/2000/svg" xmlns:xlink="http://www.w3.org/1999/xlink" xml:space="preserve" xmlns:serif="http://www.serif.com/" style="fill-rule:evenodd;clip-rule:evenodd;stroke-linejoin:round;stroke-miterlimit:2;">
    <path d="M12,13C12,12.451 12.451,12 13,12L15,12C15,10.354 13.646,9 12,9C10.354,9 9,10.354 9,12C9,13.646 10.354,15 12,15L12,13ZM12,19L12,17C9.257,17 7,14.743 7,12C7,9.257 9.257,7 12,7C14.743,7 17,9.257 17,12L19,12C19,8.16 15.84,5 12,5C8.16,5 5,8.16 5,12C5,15.84 8.16,19 12,19ZM14,20L19,20C19.549,20 20,19.549 20,19L20,14C20,13.451 19.549,13 19,13L14,13C13.451,13 13,13.451 13,14L13,19C13,19.549 13.451,20 14,20ZM15,16L16,16L16,15C16,14.726 16.226,14.5 16.5,14.5C16.774,14.5 17,14.726 17,15L17,16L18,16C18.274,16 18.5,16.226 18.5,16.5C18.5,16.774 18.274,17 18,17L17,17L17,18C17,18.274 16.774,18.5 16.5,18.5C16.226,18.5 16,18.274 16,18L16,17L15,17C14.726,17 14.5,16.774 14.5,16.5C14.5,16.226 14.726,16 15,16Z" style="fill-rule:nonzero;"/>
</svg>
