<?xml version="1.0" encoding="UTF-8" standalone="no"?>
<!DOCTYPE svg PUBLIC "-//W3C//DTD SVG 1.1//EN" "http://www.w3.org/Graphics/SVG/1.1/DTD/svg11.dtd">
<svg width="100%" height="100%" viewBox="0 0 24 24" version="1.1" xmlns="http://www.w3.org/2000/svg" xmlns:xlink="http://www.w3.org/1999/xlink" xml:space="preserve" xmlns:serif="http://www.serif.com/" style="fill-rule:evenodd;clip-rule:evenodd;stroke-linejoin:round;stroke-miterlimit:2;">
    <path d="M12,5C8.16,5 5,8.16 5,12C5,15.84 8.16,19 12,19C15.84,19 19,15.84 19,12C18.996,8.162 15.838,5.004 12,5ZM12,17C9.257,17 7,14.743 7,12C7,9.257 9.257,7 12,7C14.743,7 17,9.257 17,12C16.997,14.742 14.742,16.997 12,17ZM12,9C13.656,9 15,10.344 15,12C15,13.656 13.656,15 12,15C10.344,15 9,13.656 9,12C9,10.344 10.344,9 12,9Z" style="fill-rule:nonzero;"/>
</svg>
