<?xml version="1.0" encoding="UTF-8" standalone="no"?>
<!DOCTYPE svg PUBLIC "-//W3C//DTD SVG 1.1//EN" "http://www.w3.org/Graphics/SVG/1.1/DTD/svg11.dtd">
<svg width="100%" height="100%" viewBox="0 0 24 24" version="1.1" xmlns="http://www.w3.org/2000/svg" xmlns:xlink="http://www.w3.org/1999/xlink" xml:space="preserve" xmlns:serif="http://www.serif.com/" style="fill-rule:evenodd;clip-rule:evenodd;stroke-linejoin:round;stroke-miterlimit:2;">
    <path d="M19.51,22L8.51,22C7.961,22 7.51,21.549 7.51,21L7.51,7C7.51,6.451 7.961,6 8.51,6L19.51,6C20.059,6 20.51,6.451 20.51,7L20.51,21C20.51,21.549 20.059,22 19.51,22ZM9.51,20L18.51,20L18.51,8L9.51,8L9.51,20ZM4.49,17C3.941,17 3.49,16.549 3.49,16L3.49,3C3.49,2.451 3.941,2 4.49,2L14.49,2C15.039,2 15.49,2.451 15.49,3C15.49,3.549 15.039,4 14.49,4L5.49,4L5.49,16C5.49,16.549 5.039,17 4.49,17Z" style="fill-rule:nonzero;"/>
</svg>
