<?xml version="1.0" encoding="UTF-8" standalone="no"?>
<!DOCTYPE svg PUBLIC "-//W3C//DTD SVG 1.1//EN" "http://www.w3.org/Graphics/SVG/1.1/DTD/svg11.dtd">
<svg width="100%" height="100%" viewBox="0 0 24 24" version="1.1" xmlns="http://www.w3.org/2000/svg" xmlns:xlink="http://www.w3.org/1999/xlink" xml:space="preserve" xmlns:serif="http://www.serif.com/" style="fill-rule:evenodd;clip-rule:evenodd;stroke-linejoin:round;stroke-miterlimit:2;">
    <path d="M19,19C19.549,19 20,18.549 20,18L20,6C20,5.451 19.549,5 19,5C18.735,5 18.48,5.106 18.293,5.293L15.293,8.293L12.707,5.709C12.319,5.321 11.681,5.321 11.293,5.709L8.708,8.294L5.708,5.294C5.52,5.106 5.266,5 5,5C4.451,5 4,5.451 4,6L4,18C4,18.549 4.451,19 5,19L19,19ZM6,8.414L8,10.414C8.388,10.802 9.026,10.802 9.414,10.414L12,7.83L14.585,10.415C14.973,10.803 15.611,10.803 15.999,10.415L17.999,8.415L17.999,17L6,17L6,8.414Z" style="fill-rule:nonzero;"/>
</svg>
