<?xml version="1.0" encoding="UTF-8" standalone="no"?>
<!DOCTYPE svg PUBLIC "-//W3C//DTD SVG 1.1//EN" "http://www.w3.org/Graphics/SVG/1.1/DTD/svg11.dtd">
<svg width="100%" height="100%" viewBox="0 0 24 24" version="1.1" xmlns="http://www.w3.org/2000/svg" xmlns:xlink="http://www.w3.org/1999/xlink" xml:space="preserve" xmlns:serif="http://www.serif.com/" style="fill-rule:evenodd;clip-rule:evenodd;stroke-linejoin:round;stroke-miterlimit:2;">
    <path d="M12,4C11.451,4 11,4.451 11,5L11,12.586L7.707,9.293C7.521,9.113 7.271,9.012 7.012,9.012C6.464,9.012 6.012,9.464 6.012,10.012C6.012,10.271 6.113,10.521 6.293,10.707L11.293,15.707C11.386,15.8 11.497,15.874 11.619,15.924C11.863,16.027 12.139,16.027 12.383,15.924C12.505,15.874 12.616,15.8 12.709,15.707L17.709,10.707C17.889,10.521 17.99,10.271 17.99,10.012C17.99,9.464 17.538,9.012 16.99,9.012C16.731,9.012 16.481,9.113 16.295,9.293L13,12.586L13,5C13,4.451 12.549,4 12,4ZM7,20L17,20C17.549,20 18,19.549 18,19C18,18.451 17.549,18 17,18L7,18C6.451,18 6,18.451 6,19C6,19.549 6.451,20 7,20Z" style="fill-rule:nonzero;"/>
</svg>
