<?xml version="1.0" encoding="UTF-8" standalone="no"?>
<!DOCTYPE svg PUBLIC "-//W3C//DTD SVG 1.1//EN" "http://www.w3.org/Graphics/SVG/1.1/DTD/svg11.dtd">
<svg width="100%" height="100%" viewBox="0 0 24 24" version="1.1" xmlns="http://www.w3.org/2000/svg" xmlns:xlink="http://www.w3.org/1999/xlink" xml:space="preserve" xmlns:serif="http://www.serif.com/" style="fill-rule:evenodd;clip-rule:evenodd;stroke-linejoin:round;stroke-miterlimit:2;">
    <path d="M5.707,4.293C5.521,4.113 5.271,4.012 5.012,4.012C4.464,4.012 4.012,4.464 4.012,5.012C4.012,5.271 4.113,5.521 4.293,5.707L18.293,19.707C18.479,19.887 18.729,19.988 18.988,19.988C19.536,19.988 19.988,19.536 19.988,18.988C19.988,18.729 19.887,18.479 19.707,18.293L5.707,4.293ZM12,5.5C10.916,5.5 9.838,5.657 8.8,5.966L10.982,8.149C11.313,8.055 11.656,8.005 12,8C14.194,8 16,9.806 16,12C15.996,12.346 15.946,12.69 15.851,13.023L18.914,16.086C20.269,15.004 21.33,13.599 22,12C20.287,8.022 16.331,5.451 12,5.5ZM12,16C9.806,16 8,14.194 8,12C8.004,11.654 8.054,11.31 8.149,10.977L5.086,7.914C3.731,8.996 2.67,10.401 2,12C3.713,15.978 7.669,18.549 12,18.5C13.085,18.501 14.165,18.344 15.205,18.034L13.023,15.851C12.69,15.946 12.346,15.996 12,16Z" style="fill-rule:nonzero;"/>
</svg>
