<?xml version="1.0" encoding="UTF-8" standalone="no"?>
<!DOCTYPE svg PUBLIC "-//W3C//DTD SVG 1.1//EN" "http://www.w3.org/Graphics/SVG/1.1/DTD/svg11.dtd">
<svg width="100%" height="100%" viewBox="0 0 24 24" version="1.1" xmlns="http://www.w3.org/2000/svg" xmlns:xlink="http://www.w3.org/1999/xlink" xml:space="preserve" xmlns:serif="http://www.serif.com/" style="fill-rule:evenodd;clip-rule:evenodd;stroke-linejoin:round;stroke-miterlimit:2;">
    <path d="M12,4C7.611,4 4,7.611 4,12C4,16.389 7.611,20 12,20C16.389,20 20,16.389 20,12C19.995,7.613 16.387,4.005 12,4ZM13,15C13,15.549 12.549,16 12,16C11.451,16 11,15.549 11,15L11,12C11,11.451 11.451,11 12,11C12.549,11 13,11.451 13,12L13,15ZM12,10C11.451,10 11,9.549 11,9C11,8.451 11.451,8 12,8C12.549,8 13,8.451 13,9C13,9.549 12.549,10 12,10Z" style="fill-rule:nonzero;"/>
</svg>
