<?xml version="1.0" encoding="UTF-8" standalone="no"?>
<!DOCTYPE svg PUBLIC "-//W3C//DTD SVG 1.1//EN" "http://www.w3.org/Graphics/SVG/1.1/DTD/svg11.dtd">
<svg width="100%" height="100%" viewBox="0 0 24 24" version="1.1" xmlns="http://www.w3.org/2000/svg" xmlns:xlink="http://www.w3.org/1999/xlink" xml:space="preserve" xmlns:serif="http://www.serif.com/" style="fill-rule:evenodd;clip-rule:evenodd;stroke-linejoin:round;stroke-miterlimit:2;">
    <path d="M15.054,8.946C14.666,8.558 14.028,8.558 13.64,8.946L8.946,13.64C8.751,13.828 8.641,14.088 8.641,14.359C8.641,14.908 9.092,15.359 9.641,15.359C9.912,15.359 10.172,15.249 10.36,15.054L15.054,10.36C15.442,9.972 15.442,9.334 15.054,8.946ZM15.52,14.173C15.785,14.173 16.04,14.067 16.227,13.88L17.735,12.372C18.545,11.562 19,10.463 19,9.319C19,6.95 17.05,5 14.681,5C13.537,5 12.438,5.455 11.628,6.265L10.12,7.773C9.932,7.961 9.827,8.215 9.827,8.48C9.827,9.029 10.278,9.481 10.827,9.481C11.092,9.481 11.347,9.375 11.534,9.188L13.042,7.679C13.474,7.263 14.051,7.03 14.651,7.03C15.923,7.03 16.97,8.077 16.97,9.349C16.97,9.949 16.737,10.526 16.321,10.958L14.812,12.466C14.625,12.653 14.519,12.908 14.519,13.173C14.519,13.722 14.971,14.173 15.519,14.173C15.519,14.173 15.52,14.173 15.52,14.173ZM6.265,17.735C7.941,19.408 10.696,19.408 12.372,17.735L13.88,16.227C14.068,16.039 14.173,15.785 14.173,15.52C14.173,14.971 13.722,14.519 13.173,14.519C12.908,14.519 12.653,14.625 12.466,14.812L10.958,16.321C10.526,16.737 9.949,16.97 9.349,16.97C8.077,16.97 7.03,15.923 7.03,14.651C7.03,14.051 7.263,13.474 7.679,13.042L9.188,11.534C9.375,11.347 9.481,11.092 9.481,10.827C9.481,10.278 9.029,9.827 8.48,9.827C8.215,9.827 7.961,9.932 7.773,10.12L6.265,11.628C5.455,12.437 5,13.537 5,14.682C5,15.826 5.455,16.926 6.265,17.735Z" style="fill-rule:nonzero;"/>
</svg>
