<?xml version="1.0" encoding="UTF-8" standalone="no"?>
<!DOCTYPE svg PUBLIC "-//W3C//DTD SVG 1.1//EN" "http://www.w3.org/Graphics/SVG/1.1/DTD/svg11.dtd">
<svg width="100%" height="100%" viewBox="0 0 24 24" version="1.1" xmlns="http://www.w3.org/2000/svg" xmlns:xlink="http://www.w3.org/1999/xlink" xml:space="preserve" xmlns:serif="http://www.serif.com/" style="fill-rule:evenodd;clip-rule:evenodd;stroke-linejoin:round;stroke-miterlimit:2;">
    <path d="M12,4.32C12.966,4.32 13.75,5.104 13.75,6.07C13.75,7.036 12.966,7.82 12,7.82C11.034,7.82 10.25,7.036 10.25,6.07C10.25,5.104 11.034,4.32 12,4.32ZM5.789,15.18C6.755,15.18 7.539,15.964 7.539,16.93C7.539,17.896 6.755,18.68 5.789,18.68C4.823,18.68 4.039,17.896 4.039,16.93C4.039,15.964 4.823,15.18 5.789,15.18ZM18.211,15.18C19.177,15.18 19.961,15.964 19.961,16.93C19.961,17.896 19.177,18.68 18.211,18.68C17.245,18.68 16.461,17.896 16.461,16.93C16.461,15.964 17.245,15.18 18.211,15.18Z"/>
</svg>
