<?xml version="1.0" encoding="UTF-8" standalone="no"?>
<!DOCTYPE svg PUBLIC "-//W3C//DTD SVG 1.1//EN" "http://www.w3.org/Graphics/SVG/1.1/DTD/svg11.dtd">
<svg width="100%" height="100%" viewBox="0 0 24 24" version="1.1" xmlns="http://www.w3.org/2000/svg" xmlns:xlink="http://www.w3.org/1999/xlink" xml:space="preserve" xmlns:serif="http://www.serif.com/" style="fill-rule:evenodd;clip-rule:evenodd;stroke-linejoin:round;stroke-miterlimit:2;">
    <path d="M5,18C5,18.549 5.451,19 6,19L12,19C12.549,19 13,18.549 13,18C13,17.451 12.549,17 12,17L7,17L7,7L12,7C12.549,7 13,6.549 13,6C13,5.451 12.549,5 12,5L6,5C5.451,5 5,5.451 5,6L5,18ZM20.769,11.36L15.769,5.36C15.579,5.132 15.297,5 15,5C14.451,5 14,5.451 14,6C14,6.234 14.081,6.46 14.231,6.64L17.862,11L10,10.983C9.451,10.983 9,11.434 9,11.983C9,12.532 9.451,12.983 10,12.983L17.868,13L14.231,17.36C14.081,17.54 14,17.766 14,18C14,18.549 14.451,19 15,19C15.297,19 15.579,18.868 15.769,18.64L20.769,12.64C20.803,12.591 20.833,12.539 20.857,12.485C20.883,12.446 20.907,12.406 20.926,12.363C20.971,12.252 20.995,12.133 20.998,12.013L21,12C20.999,11.875 20.974,11.752 20.927,11.637C20.907,11.596 20.885,11.556 20.859,11.518C20.834,11.463 20.804,11.41 20.769,11.36Z" style="fill-rule:nonzero;"/>
</svg>
