<?xml version="1.0" encoding="UTF-8" standalone="no"?>
<!DOCTYPE svg PUBLIC "-//W3C//DTD SVG 1.1//EN" "http://www.w3.org/Graphics/SVG/1.1/DTD/svg11.dtd">
<svg width="100%" height="100%" viewBox="0 0 24 24" version="1.1" xmlns="http://www.w3.org/2000/svg" xmlns:xlink="http://www.w3.org/1999/xlink" xml:space="preserve" xmlns:serif="http://www.serif.com/" style="fill-rule:evenodd;clip-rule:evenodd;stroke-linejoin:round;stroke-miterlimit:2;">
    <path d="M5.453,19.837C5.616,19.943 5.806,20 6,20C6.138,20 6.274,19.972 6.4,19.916L10,18.341L13.6,19.916C13.614,19.922 13.629,19.916 13.644,19.925C13.871,20.025 14.129,20.025 14.356,19.925C14.371,19.925 14.386,19.925 14.4,19.916L18.4,18.166C18.764,18.007 19,17.647 19,17.25L19,5C19,4.452 18.548,4.001 18,4.001C17.862,4.001 17.726,4.029 17.6,4.084L14,5.659L10.4,4.084C10.388,4.078 10.374,4.077 10.361,4.072C10.322,4.058 10.282,4.046 10.241,4.037C10.202,4.026 10.161,4.018 10.121,4.012C10.082,4.009 10.042,4.009 10.003,4.012C9.961,4.009 9.92,4.009 9.878,4.012C9.839,4.018 9.8,4.026 9.761,4.036C9.72,4.047 9.679,4.057 9.639,4.072C9.626,4.072 9.612,4.078 9.6,4.084L5.6,5.834C5.236,5.993 5,6.353 5,6.75L5,19C5,19.337 5.171,19.653 5.453,19.837ZM17,16.6L15,17.475L15,7.4L17,6.525L17,16.6ZM13,17.475L11,16.6L11,6.529L13,7.4L13,17.475ZM7,7.4L9,6.525L9,16.6L7,17.475L7,7.4Z" style="fill-rule:nonzero;"/>
</svg>
