<?xml version="1.0" encoding="UTF-8" standalone="no"?>
<!DOCTYPE svg PUBLIC "-//W3C//DTD SVG 1.1//EN" "http://www.w3.org/Graphics/SVG/1.1/DTD/svg11.dtd">
<svg width="100%" height="100%" viewBox="0 0 24 24" version="1.1" xmlns="http://www.w3.org/2000/svg" xmlns:xlink="http://www.w3.org/1999/xlink" xml:space="preserve" xmlns:serif="http://www.serif.com/" style="fill-rule:evenodd;clip-rule:evenodd;stroke-linejoin:round;stroke-miterlimit:2;">
    <path d="M18,4L6,4C5.451,4 5,4.451 5,5L5,19C5,19.549 5.451,20 6,20L18,20C18.549,20 19,19.549 19,19L19,5C19,4.451 18.549,4 18,4ZM7,6L16,6L16,18L7,18L7,6ZM13.5,8L9.5,8C8.951,8 8.5,8.451 8.5,9C8.5,9.549 8.951,10 9.5,10L13.5,10C14.049,10 14.5,9.549 14.5,9C14.5,8.451 14.049,8 13.5,8Z" style="fill-rule:nonzero;"/>
</svg>
