<?xml version="1.0" encoding="UTF-8" standalone="no"?>
<!DOCTYPE svg PUBLIC "-//W3C//DTD SVG 1.1//EN" "http://www.w3.org/Graphics/SVG/1.1/DTD/svg11.dtd">
<svg width="100%" height="100%" viewBox="0 0 24 24" version="1.1" xmlns="http://www.w3.org/2000/svg" xmlns:xlink="http://www.w3.org/1999/xlink" xml:space="preserve" xmlns:serif="http://www.serif.com/" style="fill-rule:evenodd;clip-rule:evenodd;stroke-linejoin:round;stroke-miterlimit:2;">
    <path d="M21,4L3,4C2.451,4 2,4.451 2,5L2,19C2,19.549 2.451,20 3,20L21,20C21.549,20 22,19.549 22,19L22,5C22,4.451 21.549,4 21,4ZM20,18L4,18L4,6L20,6L20,18ZM18.5,14.5L5.5,14.5L5.5,16.5L18.5,16.5L18.5,14.5ZM18.5,11L12,11L12,13L18.5,13L18.5,11ZM18.5,7.5L12,7.5L12,9.5L18.5,9.5L18.5,7.5ZM10.5,7.5L5.5,7.5L5.5,13L10.5,13L10.5,7.5Z" style="fill-rule:nonzero;"/>
</svg>
