<?xml version="1.0" encoding="UTF-8" standalone="no"?>
<!DOCTYPE svg PUBLIC "-//W3C//DTD SVG 1.1//EN" "http://www.w3.org/Graphics/SVG/1.1/DTD/svg11.dtd">
<svg width="100%" height="100%" viewBox="0 0 24 24" version="1.1" xmlns="http://www.w3.org/2000/svg" xmlns:xlink="http://www.w3.org/1999/xlink" xml:space="preserve" xmlns:serif="http://www.serif.com/" style="fill-rule:evenodd;clip-rule:evenodd;stroke-linejoin:round;stroke-miterlimit:2;">
    <path d="M12,2C6.514,2 2,6.514 2,12C2,17.486 6.514,22 12,22C17.486,22 22,17.486 22,12C21.994,6.516 17.484,2.006 12,2ZM12,20C7.611,20 4,16.389 4,12C4,7.611 7.611,4 12,4C16.389,4 20,7.611 20,12C19.995,16.387 16.387,19.995 12,20ZM12,9C10.354,9 9,10.354 9,12C9,13.646 10.354,15 12,15C13.646,15 15,13.646 15,12C15,10.354 13.646,9 12,9ZM12,13C11.451,13 11,12.549 11,12C11,11.451 11.451,11 12,11C12.549,11 13,11.451 13,12C13,12.549 12.549,13 12,13Z" style="fill-rule:nonzero;"/>
</svg>
