<?xml version="1.0" encoding="UTF-8" standalone="no"?>
<!DOCTYPE svg PUBLIC "-//W3C//DTD SVG 1.1//EN" "http://www.w3.org/Graphics/SVG/1.1/DTD/svg11.dtd">
<svg width="100%" height="100%" viewBox="0 0 24 24" version="1.1" xmlns="http://www.w3.org/2000/svg" xmlns:xlink="http://www.w3.org/1999/xlink" xml:space="preserve" xmlns:serif="http://www.serif.com/" style="fill-rule:evenodd;clip-rule:evenodd;stroke-linejoin:round;stroke-miterlimit:2;">
    <path d="M8,6.5C8.828,6.5 9.5,7.172 9.5,8C9.5,8.828 8.828,9.5 8,9.5C7.172,9.5 6.5,8.828 6.5,8C6.5,7.172 7.172,6.5 8,6.5ZM16,6.5C16.828,6.5 17.5,7.172 17.5,8C17.5,8.828 16.828,9.5 16,9.5C15.172,9.5 14.5,8.828 14.5,8C14.5,7.172 15.172,6.5 16,6.5ZM8,14.5C8.828,14.5 9.5,15.172 9.5,16C9.5,16.828 8.828,17.5 8,17.5C7.172,17.5 6.5,16.828 6.5,16C6.5,15.172 7.172,14.5 8,14.5ZM16,14.5C16.828,14.5 17.5,15.172 17.5,16C17.5,16.828 16.828,17.5 16,17.5C15.172,17.5 14.5,16.828 14.5,16C14.5,15.172 15.172,14.5 16,14.5Z"/>
</svg>
