<?xml version="1.0" encoding="UTF-8" standalone="no"?>
<!DOCTYPE svg PUBLIC "-//W3C//DTD SVG 1.1//EN" "http://www.w3.org/Graphics/SVG/1.1/DTD/svg11.dtd">
<svg width="100%" height="100%" viewBox="0 0 24 24" version="1.1" xmlns="http://www.w3.org/2000/svg" xmlns:xlink="http://www.w3.org/1999/xlink" xml:space="preserve" xmlns:serif="http://www.serif.com/" style="fill-rule:evenodd;clip-rule:evenodd;stroke-linejoin:round;stroke-miterlimit:2;">
    <path d="M19.71,11.29L16.71,8.29C16.522,8.102 16.266,7.996 16,7.996C15.449,7.996 14.996,8.449 14.996,9C14.996,9.266 15.102,9.522 15.29,9.71L16.59,11L15,11C13.914,11.009 12.89,10.485 12.26,9.6C10.708,7.787 8.38,6.821 6,7C5.451,7 5,7.451 5,8C5,8.549 5.451,9 6,9C7.84,8.827 9.651,9.577 10.83,11C11.164,11.361 11.525,11.695 11.91,12C11.525,12.305 11.164,12.639 10.83,13C9.651,14.423 7.84,15.173 6,15C5.451,15 5,15.451 5,16C5,16.549 5.451,17 6,17C8.38,17.179 10.708,16.213 12.26,14.4C12.89,13.515 13.914,12.991 15,13L16.59,13L15.29,14.29C15.101,14.478 14.994,14.733 14.994,15C14.994,15.267 15.101,15.522 15.29,15.71C15.478,15.899 15.733,16.006 16,16.006C16.267,16.006 16.522,15.899 16.71,15.71L19.71,12.71C19.801,12.615 19.872,12.503 19.92,12.38C20.02,12.137 20.02,11.863 19.92,11.62C19.872,11.497 19.801,11.385 19.71,11.29Z" style="fill-rule:nonzero;"/>
</svg>
