<?xml version="1.0" encoding="UTF-8" standalone="no"?>
<!DOCTYPE svg PUBLIC "-//W3C//DTD SVG 1.1//EN" "http://www.w3.org/Graphics/SVG/1.1/DTD/svg11.dtd">
<svg width="100%" height="100%" viewBox="0 0 24 24" version="1.1" xmlns="http://www.w3.org/2000/svg" xmlns:xlink="http://www.w3.org/1999/xlink" xml:space="preserve" xmlns:serif="http://www.serif.com/" style="fill-rule:evenodd;clip-rule:evenodd;stroke-linejoin:round;stroke-miterlimit:2;">
    <path d="M19.16,9.674L19.55,6.923C19.585,6.671 19.412,6.432 19.161,6.388L16.426,5.908L15.126,3.456C15.005,3.232 14.726,3.141 14.497,3.251L12,4.471L9.505,3.251C9.276,3.141 8.997,3.232 8.876,3.456L7.576,5.908L4.841,6.388C4.59,6.432 4.417,6.671 4.452,6.923L4.842,9.674L2.91,11.674C2.732,11.857 2.732,12.153 2.91,12.336L4.842,14.336L4.452,17.087C4.417,17.339 4.59,17.578 4.841,17.622L7.576,18.102L8.876,20.554C8.998,20.777 9.277,20.866 9.505,20.754L12,19.529L14.495,20.749C14.56,20.78 14.632,20.797 14.704,20.797C14.88,20.797 15.042,20.699 15.124,20.544L16.424,18.092L19.159,17.612C19.41,17.568 19.583,17.329 19.548,17.077L19.158,14.326L21.09,12.326C21.268,12.143 21.268,11.847 21.09,11.664L19.16,9.674ZM12,16C11.451,16 11,15.549 11,15C11,14.451 11.451,14 12,14C12.549,14 13,14.451 13,15C13,15.549 12.549,16 12,16ZM13,12C13,12.549 12.549,13 12,13C11.451,13 11,12.549 11,12L11,9C11,8.451 11.451,8 12,8C12.549,8 13,8.451 13,9L13,12Z" style="fill-rule:nonzero;"/>
</svg>
