<?xml version="1.0" encoding="UTF-8" standalone="no"?>
<!DOCTYPE svg PUBLIC "-//W3C//DTD SVG 1.1//EN" "http://www.w3.org/Graphics/SVG/1.1/DTD/svg11.dtd">
<svg width="100%" height="100%" viewBox="0 0 24 24" version="1.1" xmlns="http://www.w3.org/2000/svg" xmlns:xlink="http://www.w3.org/1999/xlink" xml:space="preserve" xmlns:serif="http://www.serif.com/" style="fill-rule:evenodd;clip-rule:evenodd;stroke-linejoin:round;stroke-miterlimit:2;">
    <path d="M7,8L7,16C7,16.549 7.451,17 8,17L16,17C16.549,17 17,16.549 17,16L17,8C17,7.451 16.549,7 16,7L8,7C7.451,7 7,7.451 7,8ZM9,9L15,9L15,15L9,15L9,9ZM4,11L5,11C5.549,11 6,10.549 6,10C6,9.451 5.549,9 5,9L4,9C3.451,9 3,9.451 3,10C3,10.549 3.451,11 4,11ZM4,15L5,15C5.549,15 6,14.549 6,14C6,13.451 5.549,13 5,13L4,13C3.451,13 3,13.451 3,14C3,14.549 3.451,15 4,15ZM19,11L20,11C20.549,11 21,10.549 21,10C21,9.451 20.549,9 20,9L19,9C18.451,9 18,9.451 18,10C18,10.549 18.451,11 19,11ZM19,15L20,15C20.549,15 21,14.549 21,14C21,13.451 20.549,13 20,13L19,13C18.451,13 18,13.451 18,14C18,14.549 18.451,15 19,15ZM9,19L9,20C9,20.549 9.451,21 10,21C10.549,21 11,20.549 11,20L11,19C11,18.451 10.549,18 10,18C9.451,18 9,18.451 9,19ZM13,19L13,20C13,20.549 13.451,21 14,21C14.549,21 15,20.549 15,20L15,19C15,18.451 14.549,18 14,18C13.451,18 13,18.451 13,19ZM11,5L11,4C11,3.451 10.549,3 10,3C9.451,3 9,3.451 9,4L9,5C9,5.549 9.451,6 10,6C10.549,6 11,5.549 11,5ZM15,5L15,4C15,3.451 14.549,3 14,3C13.451,3 13,3.451 13,4L13,5C13,5.549 13.451,6 14,6C14.549,6 15,5.549 15,5Z" style="fill-rule:nonzero;"/>
</svg>
