<?xml version="1.0" encoding="UTF-8" standalone="no"?>
<!DOCTYPE svg PUBLIC "-//W3C//DTD SVG 1.1//EN" "http://www.w3.org/Graphics/SVG/1.1/DTD/svg11.dtd">
<svg width="100%" height="100%" viewBox="0 0 24 24" version="1.1" xmlns="http://www.w3.org/2000/svg" xmlns:xlink="http://www.w3.org/1999/xlink" xml:space="preserve" xmlns:serif="http://www.serif.com/" style="fill-rule:evenodd;clip-rule:evenodd;stroke-linejoin:round;stroke-miterlimit:2;">
    <path d="M17,11.17L16.17,6L17,6C17.549,6 18,5.549 18,5C18,4.451 17.549,4 17,4L7,4C6.451,4 6,4.451 6,5C6,5.549 6.451,6 7,6L7.83,6L7,11.17L5.13,14.5C4.952,14.809 4.952,15.191 5.13,15.5C5.309,15.81 5.642,16.001 6,16L11,16L11,20C11,20.549 11.451,21 12,21C12.549,21 13,20.549 13,20L13,16L18,16C18.355,15.998 18.683,15.807 18.86,15.5C19.038,15.191 19.038,14.809 18.86,14.5L17,11.17ZM7.72,14L8.87,12C8.933,11.891 8.977,11.773 9,11.65L9.86,6L14.14,6L15,11.65C15.02,11.773 15.061,11.891 15.12,12L16.27,14L7.72,14Z" style="fill-rule:nonzero;"/>
</svg>
