<?xml version="1.0" encoding="UTF-8" standalone="no"?>
<!DOCTYPE svg PUBLIC "-//W3C//DTD SVG 1.1//EN" "http://www.w3.org/Graphics/SVG/1.1/DTD/svg11.dtd">
<svg width="100%" height="100%" viewBox="0 0 24 24" version="1.1" xmlns="http://www.w3.org/2000/svg" xmlns:xlink="http://www.w3.org/1999/xlink" xml:space="preserve" xmlns:serif="http://www.serif.com/" style="fill-rule:evenodd;clip-rule:evenodd;stroke-linejoin:round;stroke-miterlimit:2;">
    <path d="M10,6.051L10,18C10,18.549 10.451,19 11,19C11.549,19 12,18.549 12,18L12,6.051C12,5.502 11.549,5.051 11,5.051C10.451,5.051 10,5.502 10,6.051ZM5,17.974C5,18.523 5.451,18.974 6,18.974C6.549,18.974 7,18.523 7,17.974L7,6.026C7,5.477 6.549,5.026 6,5.026C5.451,5.026 5,5.477 5,6.026L5,17.974ZM19.832,11.445L15.832,5.445C15.647,5.167 15.334,5 15,5C14.451,5 14,5.451 14,6C14,6.198 14.058,6.391 14.168,6.555L17.8,12L14.17,17.445C14.06,17.609 14.002,17.802 14.002,18C14.002,18.549 14.453,19 15.002,19C15.336,19 15.649,18.833 15.834,18.555L19.834,12.555C20.057,12.219 20.056,11.78 19.832,11.445Z" style="fill-rule:nonzero;"/>
</svg>
