<?xml version="1.0" encoding="UTF-8" standalone="no"?>
<!DOCTYPE svg PUBLIC "-//W3C//DTD SVG 1.1//EN" "http://www.w3.org/Graphics/SVG/1.1/DTD/svg11.dtd">
<svg width="100%" height="100%" viewBox="0 0 24 24" version="1.1" xmlns="http://www.w3.org/2000/svg" xmlns:xlink="http://www.w3.org/1999/xlink" xml:space="preserve" xmlns:serif="http://www.serif.com/" style="fill-rule:evenodd;clip-rule:evenodd;stroke-linejoin:round;stroke-miterlimit:2;">
    <path d="M19.053,12.5C18.984,12.485 18.913,12.478 18.843,12.478C18.373,12.478 17.963,12.809 17.865,13.268C17.261,16.014 14.812,17.99 12,18C10.007,18.001 8.141,17.003 7.035,15.346L9.654,15.346C10.203,15.346 10.654,14.895 10.654,14.346C10.654,13.797 10.203,13.346 9.654,13.346L4.654,13.346C4.105,13.346 3.654,13.797 3.654,14.346L3.654,19.346C3.654,19.895 4.105,20.346 4.654,20.346C5.203,20.346 5.654,19.895 5.654,19.346L5.654,16.852C7.164,18.834 9.518,20 12.009,20C15.761,20 19.032,17.358 19.82,13.69C19.835,13.62 19.843,13.549 19.843,13.478C19.843,13.008 19.512,12.599 19.053,12.5ZM19.346,3.654C18.797,3.654 18.346,4.105 18.346,4.654L18.346,7.17C16.84,5.175 14.48,4 11.98,4C8.238,4 4.974,6.633 4.183,10.291C4.168,10.361 4.16,10.432 4.16,10.504C4.16,11.053 4.612,11.504 5.161,11.504C5.629,11.504 6.038,11.175 6.138,10.717C6.734,7.974 9.182,5.999 11.99,5.999C13.985,5.999 15.853,6.997 16.964,8.654L14.346,8.654C13.797,8.654 13.346,9.105 13.346,9.654C13.346,10.203 13.797,10.654 14.346,10.654L19.346,10.654C19.895,10.654 20.346,10.203 20.346,9.654L20.346,4.654C20.346,4.105 19.895,3.654 19.346,3.654Z" style="fill-rule:nonzero;"/>
</svg>
