<?xml version="1.0" encoding="UTF-8" standalone="no"?>
<!DOCTYPE svg PUBLIC "-//W3C//DTD SVG 1.1//EN" "http://www.w3.org/Graphics/SVG/1.1/DTD/svg11.dtd">
<svg width="100%" height="100%" viewBox="0 0 24 24" version="1.1" xmlns="http://www.w3.org/2000/svg" xmlns:xlink="http://www.w3.org/1999/xlink" xml:space="preserve" xmlns:serif="http://www.serif.com/" style="fill-rule:evenodd;clip-rule:evenodd;stroke-linejoin:round;stroke-miterlimit:2;">
    <path d="M12,20C15.749,19.986 19.014,17.352 19.821,13.691C19.834,13.626 19.841,13.56 19.841,13.494C19.841,12.945 19.389,12.494 18.841,12.494C18.376,12.494 17.97,12.817 17.866,13.27C17.279,16.046 14.808,18.05 11.97,18.05C8.665,18.05 5.944,15.33 5.944,12.024C5.944,8.718 8.665,5.998 11.97,5.998C13.972,5.998 15.847,6.995 16.966,8.654L14.346,8.654C13.797,8.654 13.346,9.105 13.346,9.654C13.346,10.203 13.797,10.654 14.346,10.654L19.346,10.654C19.895,10.654 20.346,10.203 20.346,9.654L20.346,4.654C20.346,4.105 19.895,3.654 19.346,3.654C18.797,3.654 18.346,4.105 18.346,4.654L18.346,7.171C16.836,5.188 14.482,4.022 11.99,4.022C7.607,4.022 4.001,7.628 4.001,12.011C4.001,16.394 7.607,20 11.99,20C11.993,20 11.997,20 12,20Z" style="fill-rule:nonzero;"/>
</svg>
