<?xml version="1.0" encoding="UTF-8" standalone="no"?>
<!DOCTYPE svg PUBLIC "-//W3C//DTD SVG 1.1//EN" "http://www.w3.org/Graphics/SVG/1.1/DTD/svg11.dtd">
<svg width="100%" height="100%" viewBox="0 0 24 24" version="1.1" xmlns="http://www.w3.org/2000/svg" xmlns:xlink="http://www.w3.org/1999/xlink" xml:space="preserve" xmlns:serif="http://www.serif.com/" style="fill-rule:evenodd;clip-rule:evenodd;stroke-linejoin:round;stroke-miterlimit:2;">
    <path d="M15.314,4L8.686,4L4,8.686L4,15.314L8.686,20L15.314,20L20,15.314L20,8.686L15.314,4ZM12,16C11.451,16 11,15.549 11,15C11,14.451 11.451,14 12,14C12.549,14 13,14.451 13,15C13,15.549 12.549,16 12,16ZM13,12C13,12.549 12.549,13 12,13C11.451,13 11,12.549 11,12L11,9C11,8.451 11.451,8 12,8C12.549,8 13,8.451 13,9L13,12Z" style="fill-rule:nonzero;"/>
</svg>
