<?xml version="1.0" encoding="UTF-8" standalone="no"?>
<!DOCTYPE svg PUBLIC "-//W3C//DTD SVG 1.1//EN" "http://www.w3.org/Graphics/SVG/1.1/DTD/svg11.dtd">
<svg width="100%" height="100%" viewBox="0 0 24 24" version="1.1" xmlns="http://www.w3.org/2000/svg" xmlns:xlink="http://www.w3.org/1999/xlink" xml:space="preserve" xmlns:serif="http://www.serif.com/" style="fill-rule:evenodd;clip-rule:evenodd;stroke-linejoin:round;stroke-miterlimit:2;">
    <path d="M11.525,18.051C12.909,18.051 14.257,17.607 15.371,16.785L17.293,18.707C17.479,18.887 17.729,18.988 17.988,18.988C18.536,18.988 18.988,18.536 18.988,17.988C18.988,17.729 18.887,17.479 18.707,17.293L16.785,15.371C17.597,14.257 18.034,12.913 18.034,11.534C18.034,7.959 15.092,5.017 11.517,5.017C7.942,5.017 5,7.959 5,11.534C5,15.109 7.942,18.051 11.517,18.051C11.52,18.051 11.522,18.051 11.525,18.051ZM11.525,7C11.525,7 11.526,7 11.526,7C14.009,7 16.052,9.043 16.052,11.526C16.052,14.009 14.009,16.052 11.526,16.052C9.043,16.052 7,14.009 7,11.526C7,11.526 7,11.525 7,11.525C7.003,9.044 9.044,7.003 11.525,7Z" style="fill-rule:nonzero;"/>
</svg>
