<?xml version="1.0" encoding="UTF-8" standalone="no"?>
<!DOCTYPE svg PUBLIC "-//W3C//DTD SVG 1.1//EN" "http://www.w3.org/Graphics/SVG/1.1/DTD/svg11.dtd">
<svg width="100%" height="100%" viewBox="0 0 24 24" version="1.1" xmlns="http://www.w3.org/2000/svg" xmlns:xlink="http://www.w3.org/1999/xlink" xml:space="preserve" xmlns:serif="http://www.serif.com/" style="fill-rule:evenodd;clip-rule:evenodd;stroke-linejoin:round;stroke-miterlimit:2;">
    <path d="M19.2,3.8L4.8,3.8C3.267,3.805 2.009,5.067 2.009,6.6L2.009,10.5L3.009,10.5C3.832,10.5 4.509,11.177 4.509,12C4.509,12.823 3.832,13.5 3.009,13.5L2,13.5L2,17.4C2,18.936 3.264,20.2 4.8,20.2L19.2,20.2C20.736,20.2 22,18.936 22,17.4L22,13.5L21,13.5C20.177,13.5 19.5,12.823 19.5,12C19.5,11.177 20.177,10.5 21,10.5L22,10.5L22,6.6C22,5.064 20.736,3.8 19.2,3.8ZM20,8.646C18.521,9.087 17.5,10.457 17.5,12C17.5,13.543 18.521,14.913 20,15.354L20,17.4C19.995,17.837 19.637,18.195 19.2,18.2L4.8,18.2C4.363,18.195 4.005,17.837 4,17.4L4,15.354C5.475,14.91 6.491,13.543 6.491,12.003C6.491,10.466 5.479,9.101 4.009,8.654L4.009,6.6C4.009,6.165 4.365,5.805 4.8,5.8L19.2,5.8C19.637,5.805 19.995,6.163 20,6.6L20,8.646ZM14.836,10.874C14.945,10.566 15.003,10.243 15.007,9.916C15.007,8.266 13.65,6.909 12,6.909C10.35,6.909 8.993,8.266 8.993,9.916C8.997,10.243 9.055,10.566 9.164,10.874C7.453,12.247 7.001,14.692 8.108,16.586C8.29,16.882 8.613,17.064 8.961,17.064C9.509,17.064 9.961,16.612 9.961,16.064C9.961,15.895 9.918,15.728 9.836,15.58C9.227,14.543 9.471,13.204 10.405,12.447C11.376,13.068 12.624,13.068 13.595,12.447C14.529,13.203 14.773,14.543 14.164,15.579C14.068,15.736 14.017,15.917 14.017,16.101C14.017,16.65 14.468,17.101 15.017,17.101C15.38,17.101 15.716,16.903 15.892,16.585C16.999,14.691 16.547,12.246 14.836,10.873L14.836,10.874ZM10.993,9.916L10.993,9.909C10.993,9.357 11.448,8.902 12,8.902C12.552,8.902 13.007,9.357 13.007,9.909C13.007,10.461 12.552,10.916 12,10.916C11.998,10.916 11.995,10.916 11.993,10.916C11.444,10.916 10.993,10.465 10.993,9.916Z" style="fill-rule:nonzero;"/>
</svg>
