<?xml version="1.0" encoding="UTF-8" standalone="no"?>
<!DOCTYPE svg PUBLIC "-//W3C//DTD SVG 1.1//EN" "http://www.w3.org/Graphics/SVG/1.1/DTD/svg11.dtd">
<svg width="100%" height="100%" viewBox="0 0 24 24" version="1.1" xmlns="http://www.w3.org/2000/svg" xmlns:xlink="http://www.w3.org/1999/xlink" xml:space="preserve" xmlns:serif="http://www.serif.com/" style="fill-rule:evenodd;clip-rule:evenodd;stroke-linejoin:round;stroke-miterlimit:2;">
    <path d="M3.35,10.478L4.744,11.566C4.731,11.718 4.725,11.861 4.725,12C4.725,12.139 4.73,12.286 4.74,12.429L3.332,13.529C2.826,13.939 2.689,14.661 3.008,15.229L4.7,18.153C5.026,18.725 5.728,18.976 6.343,18.742L8,18.076C8.236,18.232 8.481,18.374 8.733,18.501L8.991,20.314C9.107,20.942 9.661,21.402 10.3,21.4L13.7,21.4C14.358,21.411 14.924,20.918 15.005,20.265L15.255,18.5C15.507,18.372 15.751,18.23 15.986,18.075L17.657,18.746C18.265,18.981 18.961,18.733 19.282,18.166L20.99,15.209C21.316,14.646 21.171,13.92 20.654,13.525L19.262,12.425C19.271,12.286 19.275,12.145 19.275,12C19.275,11.855 19.275,11.713 19.261,11.571L20.668,10.471C21.174,10.061 21.311,9.339 20.992,8.771L19.3,5.847C18.974,5.275 18.272,5.024 17.657,5.258L16,5.924C15.764,5.768 15.519,5.626 15.267,5.499L15.016,3.729C14.922,3.079 14.356,2.594 13.7,2.6L10.3,2.6C9.645,2.598 9.084,3.086 8.995,3.735L8.745,5.5C8.493,5.628 8.249,5.77 8.014,5.925L6.343,5.254C5.735,5.018 5.039,5.266 4.718,5.834L3.01,8.791C2.683,9.356 2.83,10.084 3.35,10.478ZM6.578,12.687C6.542,12.46 6.524,12.23 6.525,12C6.528,11.77 6.549,11.54 6.588,11.313C6.639,10.99 6.511,10.663 6.253,10.462L4.786,9.315L6.074,7.085L7.8,7.777C8.092,7.894 8.425,7.85 8.677,7.661C9.056,7.371 9.471,7.13 9.911,6.946C10.207,6.825 10.416,6.555 10.461,6.239L10.721,4.4L13.295,4.4L13.556,6.239C13.601,6.555 13.81,6.825 14.106,6.946C14.546,7.128 14.959,7.367 15.336,7.658C15.587,7.851 15.923,7.896 16.216,7.777L17.939,7.084L19.228,9.315L17.76,10.462C17.502,10.663 17.374,10.99 17.425,11.313C17.461,11.54 17.479,11.77 17.478,12C17.477,12.242 17.461,12.483 17.431,12.723C17.394,13.033 17.522,13.341 17.767,13.535L19.219,14.683L17.929,16.915L16.2,16.223C15.908,16.106 15.575,16.15 15.323,16.339C14.944,16.629 14.529,16.87 14.089,17.054C13.793,17.175 13.584,17.445 13.539,17.761L13.279,19.6L10.708,19.6L10.447,17.761C10.402,17.445 10.193,17.175 9.897,17.054C9.457,16.872 9.044,16.633 8.667,16.342C8.415,16.151 8.081,16.105 7.787,16.223L6.064,16.916L4.775,14.685L6.243,13.538C6.501,13.337 6.629,13.01 6.578,12.687ZM12,16C14.194,16 16,14.194 16,12C16,9.806 14.194,8 12,8C9.806,8 8,9.806 8,12C8,14.194 9.806,16 12,16ZM12,10C13.097,10 14,10.903 14,12C14,13.097 13.097,14 12,14C10.903,14 10,13.097 10,12C10,10.903 10.903,10 12,10Z" style="fill-rule:nonzero;"/>
</svg>
