<?xml version="1.0" encoding="UTF-8" standalone="no"?>
<!DOCTYPE svg PUBLIC "-//W3C//DTD SVG 1.1//EN" "http://www.w3.org/Graphics/SVG/1.1/DTD/svg11.dtd">
<svg width="100%" height="100%" viewBox="0 0 24 24" version="1.1" xmlns="http://www.w3.org/2000/svg" xmlns:xlink="http://www.w3.org/1999/xlink" xml:space="preserve" xmlns:serif="http://www.serif.com/" style="fill-rule:evenodd;clip-rule:evenodd;stroke-linejoin:round;stroke-miterlimit:2;">
    <path d="M12,5.5C7.669,5.451 3.713,8.022 2,12C3.713,15.978 7.669,18.549 12,18.5C16.331,18.549 20.287,15.978 22,12C20.287,8.022 16.331,5.451 12,5.5ZM12,16C9.806,16 8,14.194 8,12C8,9.806 9.806,8 12,8C14.194,8 16,9.806 16,12C16,14.194 14.194,16 12,16ZM12,9.5C13.38,9.5 14.5,10.62 14.5,12C14.5,13.38 13.38,14.5 12,14.5C10.62,14.5 9.5,13.38 9.5,12C9.5,10.62 10.62,9.5 12,9.5Z" style="fill-rule:nonzero;"/>
</svg>
