<?xml version="1.0" encoding="UTF-8" standalone="no"?>
<!DOCTYPE svg PUBLIC "-//W3C//DTD SVG 1.1//EN" "http://www.w3.org/Graphics/SVG/1.1/DTD/svg11.dtd">
<svg width="100%" height="100%" viewBox="0 0 24 24" version="1.1" xmlns="http://www.w3.org/2000/svg" xmlns:xlink="http://www.w3.org/1999/xlink" xml:space="preserve" xmlns:serif="http://www.serif.com/" style="fill-rule:evenodd;clip-rule:evenodd;stroke-linejoin:round;stroke-miterlimit:2;">
    <path d="M10,16L7.13,16L10.77,11.64C10.92,11.46 11.002,11.234 11.002,11C11.002,10.451 10.55,10 10.002,10C10.001,10 10.001,10 10,10L5,10C4.451,10 4,10.451 4,11C4,11.549 4.451,12 5,12L7.87,12L4.23,16.36C4.08,16.54 3.998,16.766 3.998,17C3.998,17.549 4.45,18 4.998,18C4.999,18 4.999,18 5,18L10,18C10.549,18 11,17.549 11,17C11,16.451 10.549,16 10,16ZM19,13L15.17,13L19.76,7.65C20.015,7.354 20.073,6.935 19.91,6.58C19.746,6.226 19.39,5.999 19,6L13,6C12.451,6 12,6.451 12,7C12,7.549 12.451,8 13,8L16.83,8L12.24,13.35C11.985,13.646 11.927,14.065 12.09,14.42C12.254,14.774 12.61,15.001 13,15L19,15C19.549,15 20,14.549 20,14C20,13.451 19.549,13 19,13Z" style="fill-rule:nonzero;"/>
</svg>
