<?xml version="1.0" encoding="UTF-8" standalone="no"?>
<!DOCTYPE svg PUBLIC "-//W3C//DTD SVG 1.1//EN" "http://www.w3.org/Graphics/SVG/1.1/DTD/svg11.dtd">
<svg width="100%" height="100%" viewBox="0 0 24 24" version="1.1" xmlns="http://www.w3.org/2000/svg" xmlns:xlink="http://www.w3.org/1999/xlink" xml:space="preserve" xmlns:serif="http://www.serif.com/" style="fill-rule:evenodd;clip-rule:evenodd;stroke-linejoin:round;stroke-miterlimit:2;">
    <path d="M15,8C15.552,8 16,8.448 16,9C16,9.552 15.552,10 15,10C14.448,10 14,9.552 14,9C14,8.448 14.448,8 15,8ZM3.357,14.145L9.857,20.645C10.245,21.033 10.883,21.033 11.271,20.645L19.707,12.208C19.927,11.988 20.032,11.678 19.991,11.37L19.249,5.753C19.191,5.314 18.847,4.963 18.409,4.896L12.652,4.014C12.338,3.966 12.019,4.07 11.794,4.295L3.357,12.73C3.169,12.917 3.064,13.172 3.064,13.438C3.064,13.703 3.169,13.958 3.357,14.145ZM12.849,6.066L17.363,6.758L17.943,11.142L10.563,18.522L5.478,13.438L12.849,6.066Z"/>
</svg>
