<?xml version="1.0" encoding="UTF-8" standalone="no"?>
<!DOCTYPE svg PUBLIC "-//W3C//DTD SVG 1.1//EN" "http://www.w3.org/Graphics/SVG/1.1/DTD/svg11.dtd">
<svg width="100%" height="100%" viewBox="0 0 24 24" version="1.1" xmlns="http://www.w3.org/2000/svg" xmlns:xlink="http://www.w3.org/1999/xlink" xml:space="preserve" xmlns:serif="http://www.serif.com/" style="fill-rule:evenodd;clip-rule:evenodd;stroke-linejoin:round;stroke-miterlimit:2;">
    <path d="M5,8L6,8L6,18C6,18.549 6.451,19 7,19L17,19C17.549,19 18,18.549 18,18L18,8L19,8C19.549,8 20,7.549 20,7C20,6.451 19.549,6 19,6L16,6C16,5.451 15.549,5 15,5L9,5C8.451,5 8,5.451 8,6L5,6C4.451,6 4,6.451 4,7C4,7.549 4.451,8 5,8ZM16,8L16,17L8,17L8,8L16,8Z" style="fill-rule:nonzero;"/>
</svg>
