<?xml version="1.0" encoding="UTF-8" standalone="no"?>
<!DOCTYPE svg PUBLIC "-//W3C//DTD SVG 1.1//EN" "http://www.w3.org/Graphics/SVG/1.1/DTD/svg11.dtd">
<svg width="100%" height="100%" viewBox="0 0 24 24" version="1.1" xmlns="http://www.w3.org/2000/svg" xmlns:xlink="http://www.w3.org/1999/xlink" xml:space="preserve" xmlns:serif="http://www.serif.com/" style="fill-rule:evenodd;clip-rule:evenodd;stroke-linejoin:round;stroke-miterlimit:2;">
    <path d="M4,9L6,9C6.012,9 6.022,8.993 6.034,8.993C6.447,10.163 7.559,10.95 8.8,10.95C10.041,10.95 11.153,10.163 11.566,8.993C11.578,8.993 11.588,9 11.6,9L20,9C20.549,9 21,8.549 21,8C21,7.451 20.549,7 20,7L11.6,7C11.588,7 11.578,7.006 11.566,7.006C11.152,5.837 10.04,5.051 8.8,5.051C7.56,5.051 6.448,5.837 6.034,7.006C6.022,7.006 6.012,7 6,7L4,7C3.451,7 3,7.451 3,8C3,8.549 3.451,9 4,9ZM8.8,6.8C9.458,6.8 10,7.342 10,8C10,8.658 9.458,9.2 8.8,9.2C8.142,9.2 7.6,8.658 7.6,8C7.6,7.342 8.142,6.8 8.8,6.8ZM4,17L12.4,17C12.412,17 12.422,16.993 12.434,16.993C12.847,18.163 13.959,18.95 15.2,18.95C16.441,18.95 17.553,18.163 17.966,16.993C17.978,16.993 17.988,17 18,17L20,17C20.549,17 21,16.549 21,16C21,15.451 20.549,15 20,15L18,15C17.988,15 17.978,15.006 17.966,15.006C17.553,13.837 16.441,13.05 15.201,13.05C13.96,13.05 12.848,13.837 12.435,15.006C12.422,15.006 12.412,14.999 12.4,14.999L4,14.999C3.451,14.999 3,15.45 3,15.999C3,16.548 3.451,16.999 4,16.999L4,17ZM15.2,14.8C15.858,14.8 16.4,15.342 16.4,16C16.4,16.658 15.858,17.2 15.2,17.2C14.542,17.2 14,16.658 14,16C14,15.342 14.542,14.8 15.2,14.8Z" style="fill-rule:nonzero;"/>
</svg>
