<?xml version="1.0" encoding="UTF-8" standalone="no"?>
<!DOCTYPE svg PUBLIC "-//W3C//DTD SVG 1.1//EN" "http://www.w3.org/Graphics/SVG/1.1/DTD/svg11.dtd">
<svg width="100%" height="100%" viewBox="0 0 24 24" version="1.1" xmlns="http://www.w3.org/2000/svg" xmlns:xlink="http://www.w3.org/1999/xlink" xml:space="preserve" xmlns:serif="http://www.serif.com/" style="fill-rule:evenodd;clip-rule:evenodd;stroke-linejoin:round;stroke-miterlimit:2;">
    <path d="M5.707,12.707L11,7.414L11,19C11,19.549 11.451,20 12,20C12.549,20 13,19.549 13,19L13,7.414L18.293,12.707C18.479,12.887 18.729,12.988 18.988,12.988C19.536,12.988 19.988,12.536 19.988,11.988C19.988,11.729 19.887,11.479 19.707,11.293L12.707,4.293C12.319,3.905 11.681,3.905 11.293,4.293L4.293,11.293C4.113,11.479 4.012,11.729 4.012,11.988C4.012,12.536 4.464,12.988 5.012,12.988C5.271,12.988 5.521,12.887 5.707,12.707Z" style="fill-rule:nonzero;"/>
</svg>
