<?xml version="1.0" encoding="UTF-8" standalone="no"?>
<!DOCTYPE svg PUBLIC "-//W3C//DTD SVG 1.1//EN" "http://www.w3.org/Graphics/SVG/1.1/DTD/svg11.dtd">
<svg width="100%" height="100%" viewBox="0 0 24 24" version="1.1" xmlns="http://www.w3.org/2000/svg" xmlns:xlink="http://www.w3.org/1999/xlink" xml:space="preserve" xmlns:serif="http://www.serif.com/" style="fill-rule:evenodd;clip-rule:evenodd;stroke-linejoin:round;stroke-miterlimit:2;">
    <path d="M5,16.013C5.002,17.239 5.328,18.443 5.945,19.503C6.123,19.812 6.454,20.003 6.811,20.003C6.987,20.003 7.159,19.956 7.311,19.867C7.619,19.688 7.809,19.358 7.809,19.002C7.809,18.826 7.763,18.652 7.674,18.5C6.353,16.24 7.051,13.301 9.247,11.876C10.843,13.178 13.156,13.178 14.752,11.876C16.949,13.3 17.648,16.24 16.326,18.5C16.05,18.974 16.214,19.591 16.688,19.867C16.84,19.956 17.012,20.003 17.188,20.003C17.545,20.003 17.876,19.812 18.054,19.503C19.871,16.389 18.972,12.352 16.006,10.303C16.289,9.718 16.437,9.077 16.44,8.427C16.44,5.991 14.435,3.986 11.999,3.986C9.563,3.986 7.558,5.991 7.558,8.427C7.562,9.076 7.71,9.716 7.993,10.3C6.116,11.593 4.994,13.734 5,16.013ZM12,6C13.326,6.008 14.413,7.101 14.413,8.427C14.413,9.758 13.317,10.854 11.986,10.854C10.655,10.854 9.559,9.758 9.559,8.427C9.564,7.092 10.665,5.997 12,6Z" style="fill-rule:nonzero;"/>
</svg>
