<?xml version="1.0" encoding="UTF-8" standalone="no"?>
<!DOCTYPE svg PUBLIC "-//W3C//DTD SVG 1.1//EN" "http://www.w3.org/Graphics/SVG/1.1/DTD/svg11.dtd">
<svg width="100%" height="100%" viewBox="0 0 24 24" version="1.1" xmlns="http://www.w3.org/2000/svg" xmlns:xlink="http://www.w3.org/1999/xlink" xml:space="preserve" xmlns:serif="http://www.serif.com/" style="fill-rule:evenodd;clip-rule:evenodd;stroke-linejoin:round;stroke-miterlimit:2;">
    <path d="M18.293,19.707C18.479,19.887 18.729,19.988 18.988,19.988C19.536,19.988 19.988,19.536 19.988,18.988C19.988,18.729 19.887,18.479 19.707,18.293L5.707,4.293C5.521,4.113 5.271,4.012 5.012,4.012C4.464,4.012 4.012,4.464 4.012,5.012C4.012,5.271 4.113,5.521 4.293,5.707L18.293,19.707ZM13,8.142L13,10.172L15.852,13.024C15.946,12.691 15.996,12.346 16,12C15.993,10.187 14.755,8.595 13,8.142ZM13,18.92C13.813,18.803 14.6,18.542 15.322,18.15L13.822,16.65C13.556,16.757 13.281,16.841 13,16.9L13,18.92ZM18.15,15.322C18.707,14.303 19,13.161 19,12C18.993,8.54 16.424,5.577 13,5.08L13,7.1C15.317,7.564 17,9.617 17,11.98C17,12.61 16.881,13.234 16.648,13.819L18.15,15.322ZM10.349,5.241L9.121,6.293L12,9.172L12,6C12,5.451 11.549,5 11,5C10.761,5 10.53,5.086 10.349,5.241ZM5,16L7.13,16L10.349,18.759C10.53,18.914 10.761,19 11,19C11.549,19 12,18.549 12,18L12,14.828L10,12.828L10,15.828L8.151,14.241C7.97,14.086 7.739,14 7.5,14L6,14L6,10L7.172,10L5.172,8L5,8C4.451,8 4,8.451 4,9L4,15C4,15.549 4.451,16 5,16Z" style="fill-rule:nonzero;"/>
</svg>
