<?xml version="1.0" encoding="UTF-8" standalone="no"?>
<!DOCTYPE svg PUBLIC "-//W3C//DTD SVG 1.1//EN" "http://www.w3.org/Graphics/SVG/1.1/DTD/svg11.dtd">
<svg width="100%" height="100%" viewBox="0 0 24 24" version="1.1" xmlns="http://www.w3.org/2000/svg" xmlns:xlink="http://www.w3.org/1999/xlink" xml:space="preserve" xmlns:serif="http://www.serif.com/" style="fill-rule:evenodd;clip-rule:evenodd;stroke-linejoin:round;stroke-miterlimit:2;">
    <path d="M8,16L10.13,16L13.35,18.759C13.531,18.914 13.762,18.999 14,18.999C14.548,18.999 14.999,18.548 15,18L15,6C14.999,5.452 14.548,5.001 14,5.001C13.762,5.001 13.531,5.086 13.35,5.241L10.13,8L8,8C7.451,8 7,8.451 7,9L7,15C7,15.549 7.451,16 8,16ZM9,10L10.5,10C10.739,10 10.969,9.915 11.15,9.759L13,8.174L13,15.826L11.15,14.241C10.969,14.085 10.739,14 10.5,14L9,14L9,10Z" style="fill-rule:nonzero;"/>
</svg>
